<svg xmlns="http://www.w3.org/2000/svg" viewBox="0 0 400 200" width="100%" height="100%">
      <rect width="100%" height="100%" fill="#ffffff"/>
      <g transform="translate(75, 100)">
        <path d="M -25,-30 L 25,-30 C 25,-30 25,10 0,35 C -25,10 -25,-30 -25,-30 Z" fill="#006064" />
        <path d="M -21,-26 L 21,-26 C 21,-26 21,8 0,30 C -21,8 -21,-26 -21,-26 Z" fill="none" stroke="#ffffff" stroke-width="1.5" />
        <path d="M -12,10 L -12,-15 L -2,-2 L 8,-15 L 8,10" fill="none" stroke="#ffffff" stroke-width="3.5" stroke-linejoin="round" stroke-linecap="round"/>
        <path d="M -12,-20 L 12,-20" fill="none" stroke="#E0F7FA" stroke-width="2" />
        <polygon points="0,-12 3,-6 9,-6 4,-2 6,4 0,0 -6,4 -4,-2 -9,-6 -3,-6" fill="#00E5FF"/>
      </g>
      <g transform="translate(135, 75)">
        <text x="0" y="25" font-family="'Inter', sans-serif" font-weight="900" font-size="22" fill="#006064" letter-spacing="1">MARWADI</text>
        <text x="0" y="52" font-family="'Inter', sans-serif" font-weight="800" font-size="22" fill="#00838F" letter-spacing="0.5">UNIVERSITY</text>
        <text x="2" y="70" font-family="'Inter', sans-serif" font-weight="600" font-size="9" fill="#00E5FF" letter-spacing="2">GLOBAL EDUCATION EXCELLENCE</text>
      </g>
    </svg>