<svg xmlns="http://www.w3.org/2000/svg" viewBox="0 0 400 200" width="100%" height="100%">
      <rect width="100%" height="100%" fill="#ffffff"/>
      <rect x="20" y="20" width="360" height="160" fill="none" stroke="#6D4C41" stroke-width="2" rx="4"/>
      <rect x="25" y="25" width="350" height="150" fill="none" stroke="#D7CCC8" stroke-width="1" rx="2"/>
      <path d="M 40,40 Q 60,30 80,40 Q 100,50 120,40" fill="none" stroke="#6D4C41" stroke-width="1.5"/>
      <path d="M 360,40 Q 340,30 320,40 Q 300,50 280,40" fill="none" stroke="#6D4C41" stroke-width="1.5"/>
      <path d="M 40,160 Q 60,170 80,160 Q 100,150 120,160" fill="none" stroke="#6D4C41" stroke-width="1.5"/>
      <path d="M 360,160 Q 340,170 320,160 Q 300,150 280,160" fill="none" stroke="#6D4C41" stroke-width="1.5"/>
      <text x="50%" y="105" font-family="'Georgia', 'Times New Roman', serif" font-weight="900" font-size="32" fill="#5D4037" text-anchor="middle" letter-spacing="4">ULAVACHARU</text>
      <text x="50%" y="135" font-family="'Inter', sans-serif" font-weight="600" font-size="10" fill="#8D6E63" text-anchor="middle" letter-spacing="2">ORIGINALLY ORIGINAL CUISINE</text>
      <circle cx="200" cy="65" r="4" fill="#5D4037"/>
      <path d="M 190,65 L 210,65" stroke="#5D4037" stroke-width="1"/>
    </svg>